<svg width="194" height="194" viewBox="0 0 194 194" fill="none" xmlns="http://www.w3.org/2000/svg">
<path d="M96.9999 0.333374C43.6399 0.333374 0.333252 43.64 0.333252 97C0.333252 150.36 43.6399 193.667 96.9999 193.667C150.36 193.667 193.667 150.36 193.667 97C193.667 43.64 150.36 0.333374 96.9999 0.333374ZM96.9999 29.3334C113.047 29.3334 126 42.2867 126 58.3334C126 74.38 113.047 87.3334 96.9999 87.3334C80.9532 87.3334 67.9999 74.38 67.9999 58.3334C67.9999 42.2867 80.9532 29.3334 96.9999 29.3334ZM96.9999 166.6C72.8332 166.6 51.4699 154.227 38.9999 135.473C39.2899 116.237 77.6666 105.7 96.9999 105.7C116.237 105.7 154.71 116.237 155 135.473C142.53 154.227 121.167 166.6 96.9999 166.6Z" fill="white"/>
</svg>
