<svg width="134" height="91" viewBox="0 0 134 91" fill="none" xmlns="http://www.w3.org/2000/svg">
<path fill-rule="evenodd" clip-rule="evenodd" d="M0.572266 17.7681C0.572266 8.14308 8.37477 0.340576 17.9998 0.340576H115.594C125.219 0.340576 133.021 8.14318 133.021 17.7681V73.536C133.021 83.161 125.219 90.964 115.594 90.964H17.9998C8.37487 90.964 0.572266 83.161 0.572266 73.536V52.6231C0.572266 50.6982 2.13277 49.1376 4.05777 49.1376C5.98277 49.1376 7.54327 50.6982 7.54327 52.6231V73.536C7.54327 79.311 12.2248 83.993 17.9998 83.993H115.594C121.369 83.993 126.05 79.311 126.05 73.536V17.7681C126.05 11.9931 121.369 7.31158 115.594 7.31158H17.9998C12.2248 7.31158 7.54327 11.9931 7.54327 17.7681V28.2246H108.623C110.548 28.2246 112.108 29.7851 112.108 31.7101C112.108 33.6351 110.548 35.1956 108.623 35.1956H4.05777C2.13277 35.1956 0.572266 33.6351 0.572266 31.7101V17.7681Z" fill="white"/>
</svg>
