<svg width="168" height="167" viewBox="0 0 168 167" fill="none" xmlns="http://www.w3.org/2000/svg">
<path d="M159 74.4584V49.6667C159 45.2464 157.244 41.0072 154.119 37.8816C150.993 34.756 146.754 33 142.333 33H92.3334V22.0667C94.8751 19.7834 96.5001 16.5 96.5001 12.8167C96.5001 9.50148 95.1831 6.32205 92.8389 3.97785C90.4947 1.63364 87.3153 0.316681 84.0001 0.316681C80.6849 0.316681 77.5055 1.63364 75.1613 3.97785C72.817 6.32205 71.5001 9.50148 71.5001 12.8167C71.5001 16.5 73.1251 19.7834 75.6668 22.0667V33H25.6668C21.2465 33 17.0072 34.756 13.8816 37.8816C10.756 41.0072 9.00008 45.2464 9.00008 49.6667V74.65L8.40008 74.6917C6.29915 74.8414 4.33304 75.7819 2.898 77.3236C1.46295 78.8654 0.66564 80.8938 0.666749 83V99.6667C0.666749 101.877 1.54472 103.996 3.10753 105.559C4.67033 107.122 6.78995 108 9.00008 108V149.667C9.00008 154.087 10.756 158.326 13.8816 161.452C17.0072 164.577 21.2465 166.333 25.6668 166.333H142.333C146.754 166.333 150.993 164.577 154.119 161.452C157.244 158.326 159 154.087 159 149.667V108C161.21 108 163.33 107.122 164.893 105.559C166.455 103.996 167.333 101.877 167.333 99.6667V83.5167C167.43 82.2234 167.225 80.9253 166.733 79.725C165.05 75.6584 161.442 74.6834 159 74.4584ZM42.3334 83C42.3334 73.8 47.9334 66.3334 54.8334 66.3334C61.7334 66.3334 67.3334 73.8 67.3334 83C67.3334 92.2 61.7334 99.6667 54.8334 99.6667C47.9334 99.6667 42.3334 92.2 42.3334 83ZM117.317 133C108.975 132.975 50.6668 133 50.6668 133V116.333C50.6668 116.333 109.008 116.317 117.35 116.333L117.317 133ZM113.167 99.6667C106.267 99.6667 100.667 92.2 100.667 83C100.667 73.8 106.267 66.3334 113.167 66.3334C120.067 66.3334 125.667 73.8 125.667 83C125.667 92.2 120.067 99.6667 113.167 99.6667Z" fill="white"/>
</svg>
