<svg width="184" height="148" viewBox="0 0 184 148" fill="none" xmlns="http://www.w3.org/2000/svg">
<path d="M9.99901 0.283936C7.18302 0.283936 4.68766 1.78001 3.07608 3.87206C1.46452 5.9643 0.59375 8.69267 0.59375 11.6244V101C0.59375 103.932 1.46452 106.638 3.07608 108.73C4.68766 110.822 7.18302 112.347 9.99901 112.347H73.8662L71.7467 127.08H53.6676C48.9772 127.08 44.6079 129.548 42.1946 133.57L39.4301 138.207C38.7419 139.354 38.5351 140.604 38.641 141.818H33.0313C32.6421 141.817 32.2565 141.892 31.8966 142.04C31.5367 142.188 31.2098 142.407 30.9346 142.682C30.6594 142.957 30.4414 143.284 30.2931 143.644C30.1449 144.003 30.0694 144.389 30.0709 144.778C30.0724 145.166 30.1502 145.549 30.2998 145.906C30.4494 146.263 30.6678 146.587 30.9427 146.86C31.2176 147.133 31.5436 147.349 31.9019 147.496C32.2603 147.642 32.644 147.717 33.0313 147.716H150.969C151.751 147.719 152.502 147.411 153.057 146.86C153.612 146.309 153.926 145.561 153.929 144.778C153.931 144.389 153.855 144.003 153.707 143.644C153.559 143.284 153.341 142.957 153.065 142.682C152.79 142.407 152.463 142.188 152.103 142.04C151.743 141.892 151.358 141.817 150.969 141.818H145.359C145.465 140.604 145.259 139.354 144.57 138.207L141.805 133.57C139.392 129.548 135.023 127.08 130.332 127.08H112.253L110.14 112.347H174.001C176.817 112.347 179.312 110.822 180.924 108.73C182.535 106.638 183.406 103.932 183.406 101V11.6244C183.406 8.69267 182.535 5.9643 180.924 3.87206C179.312 1.78001 176.817 0.283936 174.001 0.283936H9.99901ZM9.99901 6.18179H174.001C174.762 6.18179 175.519 6.55032 176.241 7.48912C176.964 8.42756 177.526 9.91174 177.526 11.6244V91.6873H6.4742V11.6244C6.4742 9.91174 7.03585 8.42747 7.75858 7.48912C8.48134 6.55067 9.23764 6.18179 9.99901 6.18179ZM19.2085 12.0794C17.5118 12.0794 15.9219 12.5408 14.6124 13.4962C13.3029 14.4524 12.2222 16.0764 12.2222 17.9772V68.1137C12.2222 70.0145 13.3029 71.6155 14.6124 72.5715C15.9219 73.5277 17.5118 74.0113 19.2085 74.0113H164.642C166.338 74.0113 167.923 73.5276 169.232 72.5715C170.542 71.6151 171.628 70.0145 171.628 68.1137V17.9772C171.628 16.0764 170.542 14.4523 169.232 13.4962C167.923 12.5399 166.338 12.0794 164.642 12.0794H19.2085ZM19.2085 17.9772H164.642C165.173 17.9772 165.572 18.1544 165.73 18.2651V67.8082C165.573 67.9198 165.173 68.114 164.642 68.114H19.2085C18.6772 68.114 18.2778 67.9189 18.1199 67.8082V18.2649C18.278 18.1532 18.6772 17.9772 19.2085 17.9772ZM32.9391 23.8748C32.8835 23.8752 32.8278 23.8772 32.7722 23.8807C32.0286 23.903 31.3209 24.2056 30.7909 24.7277L24.8875 30.6253C24.612 30.8993 24.3934 31.2254 24.2443 31.5842C24.0951 31.943 24.0183 32.3275 24.0183 32.716C24.0183 33.1046 24.0951 33.4894 24.2443 33.8482C24.3934 34.207 24.612 34.5327 24.8875 34.8068L30.7909 40.7046C31.3435 41.254 32.091 41.5621 32.8701 41.5621C33.6493 41.5621 34.3968 41.254 34.9493 40.7046C35.2239 40.4307 35.4418 40.1051 35.5905 39.7469C35.7391 39.3886 35.8157 39.0045 35.8157 38.6166C35.8157 38.2287 35.7391 37.8449 35.5905 37.4866C35.4418 37.1283 35.2239 36.8027 34.9493 36.5288L31.1365 32.716L34.9493 28.9089C35.2248 28.6349 35.4434 28.3091 35.5926 27.9503C35.7418 27.5915 35.8186 27.207 35.8186 26.8185C35.8186 26.4299 35.7418 26.0451 35.5926 25.6863C35.4434 25.3275 35.2248 25.0017 34.9493 24.7277C34.413 24.1969 33.6935 23.8912 32.9391 23.8748ZM62.4393 23.8748C62.3816 23.8751 62.324 23.8771 62.2665 23.8807C61.5149 23.8972 60.7979 24.2002 60.2622 24.7277C59.9867 25.0017 59.7681 25.3275 59.6189 25.6863C59.4697 26.0451 59.3929 26.4299 59.3929 26.8185C59.3929 27.207 59.4697 27.5915 59.6189 27.9503C59.7681 28.3091 59.9867 28.6349 60.2622 28.9089L64.075 32.716L60.2622 36.5288C59.9876 36.8027 59.7697 37.1283 59.621 37.4866C59.4723 37.8449 59.3958 38.2287 59.3958 38.6166C59.3958 39.0045 59.4723 39.3886 59.621 39.7469C59.7697 40.1051 59.9876 40.4307 60.2622 40.7046C60.5362 40.9801 60.862 41.1986 61.2208 41.3478C61.5796 41.4969 61.9643 41.5738 62.3529 41.5738C62.7414 41.5738 63.1262 41.4969 63.485 41.3478C63.8438 41.1986 64.1695 40.9801 64.4436 40.7046L70.3413 34.8068C70.6168 34.5327 70.8354 34.207 70.9845 33.8482C71.1337 33.4894 71.2105 33.1046 71.2105 32.716C71.2105 32.3275 71.1337 31.943 70.9845 31.5842C70.8354 31.2254 70.6168 30.8993 70.3413 30.6253L64.4436 24.728C63.9087 24.1986 63.1917 23.8927 62.4393 23.8748ZM50.4883 23.8807C49.9525 23.8933 49.4302 24.0518 48.9776 24.339C48.525 24.6261 48.1592 25.0314 47.9196 25.5109L42.0219 37.289C41.8479 37.636 41.7442 38.0139 41.7167 38.4011C41.6891 38.7883 41.7383 39.177 41.8614 39.5452C41.9844 39.9133 42.179 40.2537 42.4338 40.5465C42.6887 40.8393 42.9989 41.0789 43.3465 41.2515C43.6925 41.4261 44.0695 41.5307 44.456 41.5594C44.8424 41.5882 45.2308 41.5406 45.5988 41.4191C45.9668 41.2977 46.3073 41.1048 46.6007 40.8517C46.8942 40.5986 47.1349 40.2901 47.3091 39.9439L53.2126 28.1428C53.3854 27.7957 53.4881 27.418 53.5148 27.0312C53.5415 26.6444 53.4916 26.256 53.368 25.8885C53.2444 25.521 53.0496 25.1815 52.7946 24.8894C52.5397 24.5972 52.2296 24.3581 51.8821 24.186C51.4496 23.9715 50.9709 23.867 50.4883 23.8807ZM136.236 23.8807C133.02 23.8807 130.332 26.5623 130.332 29.7786V56.3123C130.332 59.5287 133.019 62.2102 136.236 62.2102H153.929C157.145 62.2102 159.833 59.5287 159.833 56.3123V29.7786C159.833 26.5623 157.145 23.8807 153.929 23.8807H136.236ZM136.236 29.7786H153.929V56.3123H136.236V29.7786ZM80.0519 32.7158C79.6646 32.7173 79.2815 32.7951 78.9243 32.9447C78.5671 33.0943 78.2428 33.3127 77.9701 33.5876C77.6973 33.8625 77.4814 34.1884 77.3346 34.5467C77.1878 34.9051 77.113 35.2889 77.1145 35.6762C77.1176 36.4543 77.428 37.1997 77.9782 37.7499C78.5284 38.3001 79.2738 38.6106 80.0519 38.6136H82.9892C83.3765 38.6151 83.7602 38.5404 84.1186 38.3936C84.4769 38.2468 84.8029 38.0308 85.0778 37.758C85.3527 37.4853 85.5712 37.1609 85.7208 36.8037C85.8703 36.4465 85.9481 36.0634 85.9496 35.6762C85.9511 35.287 85.8756 34.9015 85.7274 34.5416C85.5792 34.1817 85.3611 33.8547 85.0859 33.5795C84.8107 33.3043 84.4838 33.0862 84.1239 32.938C83.7641 32.7897 83.3784 32.7142 82.9892 32.7158H80.0519ZM94.7847 32.7158C94.3974 32.7173 94.0143 32.7951 93.6571 32.9447C93.2999 33.0943 92.9756 33.3127 92.7029 33.5876C92.4301 33.8625 92.2142 34.1884 92.0674 34.5467C91.9206 34.9051 91.8458 35.2889 91.8473 35.6762C91.8504 36.4543 92.1608 37.1997 92.711 37.7499C93.2612 38.3001 94.0066 38.6106 94.7847 38.6136H121.348C122.126 38.6106 122.871 38.3001 123.421 37.7499C123.971 37.1997 124.282 36.4543 124.285 35.6762C124.286 35.2889 124.212 34.9051 124.065 34.5467C123.918 34.1884 123.702 33.8625 123.429 33.5876C123.157 33.3127 122.832 33.0943 122.475 32.9447C122.118 32.7951 121.735 32.7173 121.348 32.7158H94.7847ZM85.8632 44.5171C85.1085 44.5395 84.3911 44.8504 83.8589 45.386L77.9612 51.2838C77.4119 51.8364 77.1036 52.5838 77.1036 53.363C77.1036 54.1421 77.4119 54.8895 77.9612 55.4421L83.8589 61.34C84.133 61.6154 84.4587 61.8339 84.8175 61.9831C85.1763 62.1323 85.561 62.2091 85.9496 62.2091C86.3382 62.2091 86.7229 62.1323 87.0817 61.9831C87.4405 61.8339 87.7663 61.6154 88.0403 61.34C88.3158 61.0659 88.5344 60.7402 88.6836 60.3814C88.8327 60.0226 88.9095 59.6378 88.9095 59.2492C88.9095 58.8606 88.8327 58.4758 88.6836 58.1171C88.5344 57.7583 88.3158 57.4325 88.0403 57.1585L84.2275 53.3514L88.0403 49.5445C88.5897 48.992 88.8981 48.2443 88.8981 47.4651C88.8981 46.686 88.5897 45.9385 88.0403 45.386C87.7561 45.1 87.4163 44.8753 87.0418 44.7258C86.6674 44.5764 86.2662 44.5055 85.8632 44.5171ZM103.562 44.5171C103.029 44.5328 102.511 44.6927 102.061 44.9797C101.612 45.2667 101.249 45.67 101.011 46.147L95.113 57.9484C94.7677 58.6448 94.7114 59.4493 94.9562 60.187C95.2011 60.9247 95.7273 61.5359 96.4204 61.8877C96.7664 62.0622 97.1434 62.1668 97.5298 62.1956C97.9163 62.2243 98.3046 62.1767 98.6726 62.0553C99.0406 61.9338 99.3811 61.7412 99.6746 61.4881C99.968 61.235 100.209 60.9265 100.383 60.5803L106.281 48.7792C106.454 48.4325 106.557 48.055 106.584 47.6684C106.611 47.2818 106.561 46.8935 106.438 46.526C106.315 46.1585 106.121 45.8189 105.867 45.5266C105.612 45.2342 105.303 44.995 104.956 44.8224C104.523 44.6079 104.045 44.5034 103.562 44.5171ZM115.335 44.5171C114.588 44.5453 113.88 44.8558 113.353 45.386C112.804 45.9385 112.496 46.686 112.496 47.4651C112.496 48.2443 112.804 48.992 113.353 49.5445L117.166 53.3514L113.353 57.1585C113.078 57.4325 112.859 57.7583 112.71 58.1171C112.561 58.4758 112.484 58.8606 112.484 59.2492C112.484 59.6378 112.561 60.0226 112.71 60.3814C112.859 60.7402 113.078 61.0659 113.353 61.34C113.906 61.8893 114.653 62.1975 115.433 62.1975C116.212 62.1975 116.959 61.8893 117.512 61.34L123.415 55.4421C123.964 54.8895 124.273 54.1421 124.273 53.363C124.273 52.5838 123.964 51.8364 123.415 51.2838L117.512 45.386C117.227 45.1 116.888 44.8753 116.513 44.7258C116.139 44.5764 115.738 44.5055 115.335 44.5171ZM26.978 53.3522C26.5888 53.3506 26.2032 53.4262 25.8434 53.5744C25.4835 53.7226 25.1566 53.9407 24.8814 54.2159C24.6062 54.4911 24.3882 54.8179 24.2399 55.1777C24.0917 55.5376 24.0162 55.9231 24.0177 56.3123C24.0192 56.6996 24.0969 57.0829 24.2465 57.4401C24.3961 57.7973 24.6146 58.1214 24.8895 58.3941C25.1644 58.6669 25.4903 58.8829 25.8487 59.0297C26.207 59.1765 26.5908 59.2513 26.978 59.2497H53.5178C54.2959 59.2467 55.0413 58.9362 55.5915 58.386C56.1417 57.8358 56.4522 57.0904 56.4552 56.3123C56.4582 55.5302 56.1504 54.7791 55.5996 54.224C55.0487 53.6688 54.2999 53.3552 53.5178 53.3522H26.978ZM65.3133 53.3522C64.9241 53.3506 64.5385 53.4262 64.1786 53.5744C63.8188 53.7226 63.4918 53.9407 63.2166 54.2159C62.9414 54.4911 62.7234 54.8179 62.5752 55.1777C62.427 55.5376 62.3514 55.9231 62.3529 56.3123C62.3544 56.6996 62.4322 57.0829 62.5818 57.4401C62.7314 57.7973 62.9498 58.1214 63.2247 58.3941C63.4996 58.6669 63.8256 58.8829 64.1839 59.0297C64.5423 59.1765 64.926 59.2513 65.3133 59.2497H68.2507C68.6379 59.2513 69.0217 59.1765 69.38 59.0297C69.7384 58.8829 70.0643 58.6669 70.3392 58.3941C70.6141 58.1214 70.8326 57.7973 70.9822 57.4401C71.1318 57.0829 71.2095 56.6996 71.211 56.3123C71.2125 55.9231 71.137 55.5376 70.9887 55.1777C70.8405 54.8179 70.6225 54.4911 70.3473 54.2159C70.0721 53.9407 69.7452 53.7226 69.3853 53.5744C69.0255 53.4262 68.6398 53.3506 68.2507 53.3522H65.3133ZM75.7841 79.9094C75.002 79.9063 74.2507 80.2139 73.6956 80.7647C73.1404 81.3156 72.8268 82.0645 72.8237 82.8466C72.8245 83.2343 72.9017 83.6182 73.0509 83.976C73.2002 84.3339 73.4185 84.6588 73.6935 84.9322C73.9685 85.2055 74.2947 85.4219 74.6534 85.5691C75.0121 85.7162 75.3963 85.7912 75.7841 85.7897H78.7214C79.1092 85.7912 79.4934 85.7162 79.8521 85.5691C80.2108 85.4219 80.537 85.2055 80.812 84.9322C81.087 84.6588 81.3053 84.3339 81.4546 83.976C81.6038 83.6182 81.681 83.2343 81.6818 82.8466C81.6787 82.0645 81.3651 81.3156 80.81 80.7647C80.2548 80.2139 79.5035 79.9063 78.7214 79.9094H75.7841ZM90.5227 79.9094C89.7436 79.9109 88.9967 80.2206 88.4453 80.7709C87.8938 81.3213 87.5826 82.0675 87.5795 82.8466C87.5811 83.6266 87.8916 84.3744 88.4433 84.926C88.9949 85.4776 89.7426 85.7882 90.5227 85.7897H93.4831C94.2621 85.7866 95.0084 85.4752 95.5587 84.9238C96.1091 84.3724 96.4189 83.6257 96.4204 82.8466C96.4173 82.0685 96.1069 81.323 95.5567 80.7728C95.0065 80.2226 94.2611 79.9124 93.4831 79.9094H90.5227ZM105.279 79.9094C104.891 79.9079 104.508 79.9827 104.149 80.1294C103.791 80.2762 103.465 80.492 103.19 80.7647C102.915 81.0375 102.697 81.3618 102.547 81.719C102.397 82.0762 102.32 82.4593 102.318 82.8466C102.319 83.2343 102.396 83.6182 102.545 83.976C102.695 84.3339 102.913 84.6588 103.188 84.9322C103.463 85.2055 103.789 85.4219 104.148 85.5691C104.507 85.7162 104.891 85.7912 105.279 85.7897H108.216C108.604 85.7912 108.988 85.7162 109.347 85.5691C109.705 85.4219 110.031 85.2055 110.306 84.9322C110.581 84.6588 110.8 84.3339 110.949 83.976C111.098 83.6182 111.175 83.2343 111.176 82.8466C111.175 82.4593 111.097 82.0762 110.947 81.719C110.798 81.3618 110.579 81.0375 110.304 80.7647C110.029 80.492 109.704 80.2762 109.345 80.1294C108.987 79.9827 108.603 79.9079 108.216 79.9094H105.279ZM6.4742 97.5851H177.526V101C177.526 102.713 176.964 104.203 176.241 105.142C175.519 106.08 174.762 106.443 174.001 106.443H9.99901C9.23768 106.443 8.48132 106.08 7.75858 105.142C7.03578 104.203 6.4742 102.713 6.4742 101V97.5851ZM79.81 112.347H104.19L106.304 127.08H77.702L79.81 112.347ZM53.6676 132.983H130.332C132.96 132.983 135.385 134.341 136.737 136.594L139.519 141.231C139.751 141.618 139.624 141.818 139.173 141.818H44.8267C44.3758 141.818 44.2491 141.618 44.4812 141.231L47.2688 136.594C48.6206 134.341 51.0401 132.983 53.6676 132.983ZM18.2697 141.818C17.4876 141.821 16.7388 142.135 16.1879 142.69C15.637 143.245 15.3293 143.996 15.3323 144.778C15.3353 145.557 15.6458 146.302 16.196 146.852C16.7462 147.402 17.4916 147.713 18.2697 147.716H21.23C22.0091 147.714 22.756 147.404 23.3074 146.854C23.8589 146.304 24.1701 145.558 24.1732 144.778C24.1747 144.391 24.0997 144.006 23.9525 143.648C23.8053 143.289 23.5889 142.963 23.3155 142.688C23.0421 142.413 22.7172 142.195 22.3594 142.045C22.0015 141.896 21.6178 141.819 21.23 141.818H18.2697ZM162.77 141.818C161.988 141.821 161.239 142.135 160.688 142.69C160.137 143.245 159.83 143.996 159.833 144.778C159.836 145.557 160.146 146.302 160.696 146.852C161.246 147.402 161.992 147.713 162.77 147.716H165.73C166.508 147.713 167.254 147.402 167.804 146.852C168.354 146.302 168.665 145.557 168.668 144.778C168.671 143.996 168.363 143.245 167.812 142.69C167.261 142.135 166.512 141.821 165.73 141.818H162.77Z" fill="white"/>
</svg>
