<svg width="200" height="200" viewBox="0 0 200 200" fill="none" xmlns="http://www.w3.org/2000/svg">
<g clip-path="url(#clip0_89_18)">
<path fill-rule="evenodd" clip-rule="evenodd" d="M62.5 0C64.1576 0 65.7473 0.65848 66.9194 1.83058C68.0915 3.00269 68.75 4.5924 68.75 6.25V25H81.25V6.25C81.25 4.5924 81.9085 3.00269 83.0806 1.83058C84.2527 0.65848 85.8424 0 87.5 0C89.1576 0 90.7473 0.65848 91.9194 1.83058C93.0915 3.00269 93.75 4.5924 93.75 6.25V25H106.25V6.25C106.25 4.5924 106.908 3.00269 108.081 1.83058C109.253 0.65848 110.842 0 112.5 0C114.158 0 115.747 0.65848 116.919 1.83058C118.092 3.00269 118.75 4.5924 118.75 6.25V25H131.25V6.25C131.25 4.5924 131.908 3.00269 133.081 1.83058C134.253 0.65848 135.842 0 137.5 0C139.158 0 140.747 0.65848 141.919 1.83058C143.092 3.00269 143.75 4.5924 143.75 6.25V25C152.038 25 159.987 28.2924 165.847 34.1529C171.708 40.0134 175 47.962 175 56.25H193.75C195.408 56.25 196.997 56.9085 198.169 58.0806C199.342 59.2527 200 60.8424 200 62.5C200 64.1576 199.342 65.7473 198.169 66.9194C196.997 68.0915 195.408 68.75 193.75 68.75H175V81.25H193.75C195.408 81.25 196.997 81.9085 198.169 83.0806C199.342 84.2527 200 85.8424 200 87.5C200 89.1576 199.342 90.7473 198.169 91.9194C196.997 93.0915 195.408 93.75 193.75 93.75H175V106.25H193.75C195.408 106.25 196.997 106.908 198.169 108.081C199.342 109.253 200 110.842 200 112.5C200 114.158 199.342 115.747 198.169 116.919C196.997 118.092 195.408 118.75 193.75 118.75H175V131.25H193.75C195.408 131.25 196.997 131.908 198.169 133.081C199.342 134.253 200 135.842 200 137.5C200 139.158 199.342 140.747 198.169 141.919C196.997 143.092 195.408 143.75 193.75 143.75H175C175 152.038 171.708 159.987 165.847 165.847C159.987 171.708 152.038 175 143.75 175V193.75C143.75 195.408 143.092 196.997 141.919 198.169C140.747 199.342 139.158 200 137.5 200C135.842 200 134.253 199.342 133.081 198.169C131.908 196.997 131.25 195.408 131.25 193.75V175H118.75V193.75C118.75 195.408 118.092 196.997 116.919 198.169C115.747 199.342 114.158 200 112.5 200C110.842 200 109.253 199.342 108.081 198.169C106.908 196.997 106.25 195.408 106.25 193.75V175H93.75V193.75C93.75 195.408 93.0915 196.997 91.9194 198.169C90.7473 199.342 89.1576 200 87.5 200C85.8424 200 84.2527 199.342 83.0806 198.169C81.9085 196.997 81.25 195.408 81.25 193.75V175H68.75V193.75C68.75 195.408 68.0915 196.997 66.9194 198.169C65.7473 199.342 64.1576 200 62.5 200C60.8424 200 59.2527 199.342 58.0806 198.169C56.9085 196.997 56.25 195.408 56.25 193.75V175C47.962 175 40.0134 171.708 34.1529 165.847C28.2924 159.987 25 152.038 25 143.75H6.25C4.5924 143.75 3.00269 143.092 1.83058 141.919C0.65848 140.747 0 139.158 0 137.5C0 135.842 0.65848 134.253 1.83058 133.081C3.00269 131.908 4.5924 131.25 6.25 131.25H25V118.75H6.25C4.5924 118.75 3.00269 118.092 1.83058 116.919C0.65848 115.747 0 114.158 0 112.5C0 110.842 0.65848 109.253 1.83058 108.081C3.00269 106.908 4.5924 106.25 6.25 106.25H25V93.75H6.25C4.5924 93.75 3.00269 93.0915 1.83058 91.9194C0.65848 90.7473 0 89.1576 0 87.5C0 85.8424 0.65848 84.2527 1.83058 83.0806C3.00269 81.9085 4.5924 81.25 6.25 81.25H25V68.75H6.25C4.5924 68.75 3.00269 68.0915 1.83058 66.9194C0.65848 65.7473 0 64.1576 0 62.5C0 60.8424 0.65848 59.2527 1.83058 58.0806C3.00269 56.9085 4.5924 56.25 6.25 56.25H25C25 47.962 28.2924 40.0134 34.1529 34.1529C40.0134 28.2924 47.962 25 56.25 25V6.25C56.25 4.5924 56.9085 3.00269 58.0806 1.83058C59.2527 0.65848 60.8424 0 62.5 0ZM56.25 37.5C51.2772 37.5 46.5081 39.4754 42.9917 42.9917C39.4754 46.5081 37.5 51.2772 37.5 56.25V143.75C37.5 148.723 39.4754 153.492 42.9917 157.008C46.5081 160.525 51.2772 162.5 56.25 162.5H143.75C148.723 162.5 153.492 160.525 157.008 157.008C160.525 153.492 162.5 148.723 162.5 143.75V56.25C162.5 51.2772 160.525 46.5081 157.008 42.9917C153.492 39.4754 148.723 37.5 143.75 37.5H56.25ZM62.5 81.25C62.5 76.2772 64.4754 71.5081 67.9917 67.9917C71.5081 64.4754 76.2772 62.5 81.25 62.5H118.75C123.723 62.5 128.492 64.4754 132.008 67.9917C135.525 71.5081 137.5 76.2772 137.5 81.25V118.75C137.5 123.723 135.525 128.492 132.008 132.008C128.492 135.525 123.723 137.5 118.75 137.5H81.25C76.2772 137.5 71.5081 135.525 67.9917 132.008C64.4754 128.492 62.5 123.723 62.5 118.75V81.25ZM81.25 75C79.5924 75 78.0027 75.6585 76.8306 76.8306C75.6585 78.0027 75 79.5924 75 81.25V118.75C75 120.408 75.6585 121.997 76.8306 123.169C78.0027 124.342 79.5924 125 81.25 125H118.75C120.408 125 121.997 124.342 123.169 123.169C124.342 121.997 125 120.408 125 118.75V81.25C125 79.5924 124.342 78.0027 123.169 76.8306C121.997 75.6585 120.408 75 118.75 75H81.25Z" fill="white"/>
</g>
<defs>
<clipPath id="clip0_89_18">
<rect width="200" height="200" fill="white"/>
</clipPath>
</defs>
</svg>
