<svg width="24" height="24" viewBox="0 0 24 24" fill="none" xmlns="http://www.w3.org/2000/svg">
<g clip-path="url(#clip0_122_61)">
<path d="M12 0C9.62663 0 7.30655 0.703788 5.33316 2.02236C3.35977 3.34094 1.8217 5.21509 0.913451 7.4078C0.00519943 9.60051 -0.232441 12.0133 0.230582 14.3411C0.693605 16.6689 1.83649 18.8071 3.51472 20.4853C5.19295 22.1635 7.33115 23.3064 9.65892 23.7694C11.9867 24.2324 14.3995 23.9948 16.5922 23.0866C18.7849 22.1783 20.6591 20.6402 21.9776 18.6668C23.2962 16.6935 24 14.3734 24 12C23.9974 8.81821 22.7322 5.76751 20.4824 3.51764C18.2325 1.26778 15.1818 0.00264818 12 0ZM16.173 13.7L11.06 16.9C10.757 17.0894 10.4087 17.1941 10.0515 17.2033C9.69427 17.2125 9.3411 17.1259 9.02872 16.9523C8.71634 16.7788 8.45616 16.5247 8.27524 16.2165C8.09433 15.9084 7.99929 15.5573 8.00001 15.2V8.8C7.99929 8.44265 8.09433 8.09164 8.27524 7.78346C8.45616 7.47529 8.71634 7.22122 9.02872 7.04768C9.3411 6.87413 9.69427 6.78745 10.0515 6.79666C10.4087 6.80586 10.757 6.9106 11.06 7.1L16.173 10.3C16.4607 10.4798 16.6979 10.7298 16.8623 11.0265C17.0267 11.3231 17.113 11.6568 17.113 11.996C17.113 12.3352 17.0267 12.6689 16.8623 12.9655C16.6979 13.2622 16.4607 13.5122 16.173 13.692V13.7Z" fill="white"/>
<path d="M10 15.196L15.113 12L10 8.80399V15.196Z" fill="white"/>
</g>
<defs>
<clipPath id="clip0_122_61">
<rect width="24" height="24" fill="white"/>
</clipPath>
</defs>
</svg>
