<svg width="168" height="168" viewBox="0 0 168 168" fill="none" xmlns="http://www.w3.org/2000/svg">
<path d="M84.0001 75.6666C81.7899 75.6666 79.6703 76.5446 78.1075 78.1074C76.5447 79.6702 75.6667 81.7898 75.6667 84C75.6667 86.2101 76.5447 88.3297 78.1075 89.8925C79.6703 91.4553 81.7899 92.3333 84.0001 92.3333C86.2102 92.3333 88.3298 91.4553 89.8926 89.8925C91.4554 88.3297 92.3334 86.2101 92.3334 84C92.3334 81.7898 91.4554 79.6702 89.8926 78.1074C88.3298 76.5446 86.2102 75.6666 84.0001 75.6666ZM88.1667 0.666626C125.667 0.666626 126.583 30.4166 106.917 40.25C98.6667 44.3333 95.0001 53.0833 93.4167 60.8333C97.4167 62.5 100.917 65.0833 103.583 68.4166C134.417 51.75 167.583 58.3333 167.583 88.1666C167.583 125.667 137.833 126.5 128 106.75C123.833 98.5 115 94.8333 107.25 93.25C105.583 97.25 103 100.667 99.6667 103.5C116.25 134.25 109.667 167.333 79.8334 167.333C42.3334 167.333 41.5834 137.5 61.2501 127.667C69.4167 123.583 73.0834 114.917 74.7501 107.25C70.6667 105.583 67.0834 102.917 64.4167 99.5833C33.6667 116.083 0.666748 109.583 0.666748 79.8333C0.666748 42.3333 30.3334 41.4166 40.1667 61.1666C44.3334 69.4166 53.0834 73 60.8334 74.5833C62.4167 70.5833 65.0834 67.0833 68.5001 64.4166C51.9167 33.6666 58.5001 0.666626 88.1667 0.666626Z" fill="white"/>
</svg>
