<svg width="101" height="200" viewBox="0 0 101 200" fill="none" xmlns="http://www.w3.org/2000/svg">
<path d="M48.1728 67.643C46.7009 68.4508 45.6978 70.018 45.6978 71.8102V85.6102C45.6978 87.4012 46.7009 88.968 48.1728 89.7762C48.2388 89.8082 48.306 89.8352 48.3677 89.8672V89.7762C48.9876 90.1434 49.7005 90.3563 50.4466 90.3563C51.1954 90.3563 51.9056 90.1434 52.5235 89.7762V89.8672C52.5876 89.8352 52.6564 89.8082 52.7185 89.7762C54.1903 88.9684 55.1935 87.4012 55.1935 85.6102V71.811C55.1935 70.018 54.1903 68.4508 52.7185 67.6442C52.6556 67.6121 52.5876 67.5852 52.5235 67.5532V67.6442C51.9056 67.2793 51.1946 67.0621 50.4466 67.0621C49.6997 67.0621 48.9876 67.2793 48.3677 67.6442V67.5532C48.3044 67.584 48.2388 67.611 48.1728 67.643Z" fill="white"/>
<path d="M59.3516 51.632H52.5234V40.3332C52.5234 37.9172 53.0043 35.5633 53.9453 33.3391C54.8902 31.1129 56.2504 29.134 57.9832 27.457L58.2883 27.1652C60.4281 25.0953 62.1012 22.6582 63.2652 19.9184C64.4273 17.1785 65.0133 14.2773 65.0133 11.3023V0H60.8621V11.302C60.8621 13.716 60.3832 16.0691 59.4402 18.2949C58.4973 20.5187 57.1371 22.498 55.4043 24.1777L55.0992 24.4695C52.957 26.5375 51.2832 28.9766 50.1223 31.7184C48.9602 34.4582 48.3672 37.3562 48.3672 40.3324V51.6312H41.5441C18.6973 51.6312 0 70.3273 0 93.1734V102.502C14.352 110.601 30.8328 115.342 48.3672 115.69V104.201C48.3043 104.182 48.2383 104.172 48.1723 104.154C44.3684 103.144 41.5453 99.6602 41.5453 95.5492V71.8102C41.5453 67.6961 44.3691 64.2133 48.1723 63.2051C48.2383 63.1871 48.3051 63.175 48.3672 63.159V51.6328H52.5231V63.159C52.5871 63.175 52.6563 63.1871 52.718 63.2051C56.5258 64.2133 59.3512 67.6961 59.3512 71.8102V95.548C59.3512 99.6602 56.5262 103.144 52.718 104.153C52.6551 104.171 52.5871 104.181 52.5231 104.2V115.689C70.0602 115.341 86.543 110.6 100.892 102.501V93.1719C100.893 70.3281 82.1965 51.632 59.3516 51.632Z" fill="white"/>
<path d="M0.000488281 107.238V158.454C0.000488281 181.305 18.6985 200 41.5446 200H59.3517C82.1966 200 100.893 181.305 100.893 158.454V107.238C85.8536 115.303 68.6708 119.881 50.4466 119.881C32.2224 119.881 15.0396 115.304 0.000488281 107.238Z" fill="white"/>
</svg>
