<svg width="188" height="188" viewBox="0 0 188 188" fill="none" xmlns="http://www.w3.org/2000/svg">
<path d="M94 131.5C86.5832 131.5 79.333 129.301 73.1661 125.18C66.9993 121.06 62.1928 115.203 59.3545 108.351C56.5162 101.498 55.7736 93.9584 57.2206 86.6841C58.6675 79.4098 62.239 72.728 67.4835 67.4835C72.728 62.239 79.4098 58.6675 86.6841 57.2206C93.9584 55.7736 101.498 56.5162 108.351 59.3545C115.203 62.1928 121.06 66.9993 125.18 73.1661C129.301 79.333 131.5 86.5832 131.5 94C131.5 103.946 127.549 113.484 120.517 120.517C113.484 127.549 103.946 131.5 94 131.5ZM94 69C89.0555 69 84.222 70.4662 80.1108 73.2133C75.9995 75.9603 72.7952 79.8648 70.903 84.4329C69.0108 89.0011 68.5158 94.0277 69.4804 98.8773C70.445 103.727 72.826 108.181 76.3223 111.678C79.8187 115.174 84.2732 117.555 89.1228 118.52C93.9723 119.484 98.9989 118.989 103.567 117.097C108.135 115.205 112.04 112 114.787 107.889C117.534 103.778 119 98.9446 119 94C119 87.3696 116.366 81.0108 111.678 76.3223C106.989 71.6339 100.63 69 94 69Z" fill="white"/>
<path d="M125.25 187.75H62.75C56.1196 187.75 49.7607 185.116 45.0723 180.428C40.3839 175.739 37.75 169.38 37.75 162.75V146.812C37.7612 145.571 38.1417 144.362 38.8429 143.338C39.5442 142.314 40.5344 141.522 41.6875 141.062L64.4375 131.937C65.2087 131.596 66.041 131.413 66.8845 131.402C67.728 131.39 68.5651 131.549 69.3453 131.87C70.1256 132.19 70.833 132.665 71.4247 133.267C72.0165 133.868 72.4804 134.582 72.7886 135.368C73.0968 136.153 73.2429 136.992 73.218 137.836C73.193 138.679 72.9977 139.508 72.6437 140.274C72.2897 141.04 71.7844 141.726 71.1582 142.291C70.532 142.856 69.7978 143.289 69 143.562L50.25 151.062V162.75C50.25 166.065 51.567 169.245 53.9112 171.589C56.2554 173.933 59.4348 175.25 62.75 175.25H125.25C128.565 175.25 131.745 173.933 134.089 171.589C136.433 169.245 137.75 166.065 137.75 162.75V151.062L119 143.562C117.458 142.949 116.224 141.749 115.567 140.225C114.911 138.701 114.887 136.979 115.5 135.437C116.113 133.896 117.314 132.661 118.838 132.005C120.361 131.348 122.083 131.324 123.625 131.937L146.375 141.062C147.528 141.522 148.518 142.314 149.22 143.338C149.921 144.362 150.301 145.571 150.313 146.812V162.75C150.313 166.038 149.664 169.294 148.404 172.332C147.143 175.369 145.296 178.128 142.968 180.45C140.64 182.772 137.877 184.612 134.836 185.865C131.796 187.118 128.538 187.758 125.25 187.75Z" fill="white"/>
<path d="M50.25 62.75C44.0693 62.75 38.0275 60.9172 32.8884 57.4834C27.7494 54.0496 23.744 49.1691 21.3788 43.4589C19.0135 37.7487 18.3947 31.4653 19.6005 25.4034C20.8063 19.3415 23.7825 13.7733 28.1529 9.40293C32.5233 5.03254 38.0915 2.05626 44.1534 0.850474C50.2153 -0.355314 56.4987 0.26354 62.2089 2.62878C67.9191 4.99402 72.7996 8.99941 76.2334 14.1384C79.6672 19.2775 81.5 25.3193 81.5 31.5C81.5 35.6038 80.6917 39.6674 79.1213 43.4589C77.5508 47.2503 75.2489 50.6953 72.3471 53.5971C69.4453 56.4989 66.0003 58.8008 62.2089 60.3713C58.4174 61.9417 54.3538 62.75 50.25 62.75ZM50.25 12.75C46.5416 12.75 42.9165 13.8497 39.8331 15.91C36.7496 17.9702 34.3464 20.8986 32.9273 24.3247C31.5081 27.7508 31.1368 31.5208 31.8603 35.158C32.5838 38.7951 34.3695 42.136 36.9918 44.7583C39.614 47.3805 42.9549 49.1663 46.5921 49.8897C50.2292 50.6132 53.9992 50.2419 57.4253 48.8228C60.8514 47.4036 63.7798 45.0004 65.8401 41.917C67.9003 38.8335 69 35.2084 69 31.5C69 26.5272 67.0246 21.7581 63.5083 18.2418C59.992 14.7255 55.2228 12.75 50.25 12.75Z" fill="white"/>
<path d="M44 115.188H25.25C18.6196 115.188 12.2607 112.554 7.57233 107.865C2.88392 103.177 0.250003 96.8179 0.250003 90.1875V79.25C0.248791 77.9983 0.623471 76.775 1.32551 75.7387C2.02755 74.7023 3.02459 73.9007 4.1875 73.4375L24.125 65.625C25.6434 65.0223 27.3374 65.038 28.8443 65.6688C30.3512 66.2996 31.5513 67.4954 32.1875 69C32.4919 69.7633 32.6429 70.579 32.6317 71.4007C32.6206 72.2223 32.4475 73.0337 32.1224 73.7883C31.7973 74.543 31.3266 75.2261 30.7372 75.7987C30.1478 76.3713 29.4513 76.822 28.6875 77.125L12.75 83.5V90.1875C12.75 93.5027 14.067 96.6822 16.4112 99.0264C18.7554 101.371 21.9348 102.688 25.25 102.688H44C45.6576 102.688 47.2473 103.346 48.4194 104.518C49.5915 105.69 50.25 107.28 50.25 108.938C50.25 110.595 49.5915 112.185 48.4194 113.357C47.2473 114.529 45.6576 115.188 44 115.188Z" fill="white"/>
<path d="M137.75 62.75C131.569 62.75 125.527 60.9172 120.388 57.4834C115.249 54.0496 111.244 49.1691 108.879 43.4589C106.514 37.7487 105.895 31.4653 107.1 25.4034C108.306 19.3415 111.283 13.7733 115.653 9.40293C120.023 5.03254 125.592 2.05626 131.653 0.850474C137.715 -0.355314 143.999 0.26354 149.709 2.62878C155.419 4.99402 160.3 8.99941 163.733 14.1384C167.167 19.2775 169 25.3193 169 31.5C169 39.788 165.708 47.7366 159.847 53.5971C153.987 59.4576 146.038 62.75 137.75 62.75ZM137.75 12.75C134.042 12.75 130.417 13.8497 127.333 15.91C124.25 17.9702 121.846 20.8986 120.427 24.3247C119.008 27.7508 118.637 31.5208 119.36 35.158C120.084 38.7951 121.87 42.136 124.492 44.7583C127.114 47.3805 130.455 49.1663 134.092 49.8897C137.729 50.6132 141.499 50.2419 144.925 48.8228C148.351 47.4036 151.28 45.0004 153.34 41.917C155.4 38.8335 156.5 35.2084 156.5 31.5C156.5 26.5272 154.525 21.7581 151.008 18.2418C147.492 14.7255 142.723 12.75 137.75 12.75Z" fill="white"/>
<path d="M162.75 115.187H144C142.342 115.187 140.753 114.529 139.581 113.357C138.408 112.185 137.75 110.595 137.75 108.937C137.75 107.28 138.408 105.69 139.581 104.518C140.753 103.346 142.342 102.687 144 102.687H162.75C166.065 102.687 169.245 101.371 171.589 99.0263C173.933 96.6821 175.25 93.5027 175.25 90.1875V83.5L159.313 77.25C158.549 76.9469 157.852 76.4962 157.263 75.9237C156.673 75.3511 156.203 74.6679 155.878 73.9133C155.553 73.1586 155.379 72.3472 155.368 71.5256C155.357 70.704 155.508 69.8882 155.812 69.125C156.413 67.5864 157.598 66.348 159.109 65.6804C160.62 65.0129 162.333 64.9705 163.875 65.5625L183.813 73.375C184.975 73.8381 185.972 74.6398 186.674 75.6761C187.377 76.7125 187.751 77.9357 187.75 79.1875V90.125C187.758 93.4133 187.118 96.6709 185.865 99.7113C184.612 102.752 182.772 105.515 180.45 107.843C178.128 110.171 175.369 112.018 172.332 113.279C169.294 114.539 166.038 115.187 162.75 115.187Z" fill="white"/>
</svg>
