<svg width="194" height="194" viewBox="0 0 194 194" fill="none" xmlns="http://www.w3.org/2000/svg">
<path d="M168.847 128.887H67.5972C65.9172 128.889 64.2862 128.335 62.9722 127.315C61.6581 126.295 60.7391 124.87 60.3661 123.274L43.3175 50.9054C43.0682 49.8483 43.0667 48.7499 43.3132 47.6921C43.5597 46.6344 44.0479 45.6444 44.7414 44.7958C45.4349 43.9473 46.3158 43.262 47.3187 42.7911C48.3216 42.3201 49.4205 42.0756 50.5338 42.0757H185.911C187.025 42.0734 188.126 42.3164 189.131 42.7864C190.135 43.2564 191.018 43.9414 191.713 44.7902C192.409 45.639 192.898 46.6298 193.145 47.6886C193.393 48.7475 193.392 49.8471 193.142 50.9054L176.064 123.274C175.691 124.868 174.774 126.291 173.463 127.311C172.152 128.33 170.525 128.886 168.847 128.887ZM73.4907 114.459H162.954L176.612 56.5177H59.8281L73.4907 114.459Z" fill="white"/>
<path d="M82.084 193.33C76.4726 193.33 70.9873 191.709 66.3216 188.671C61.6559 185.634 58.0194 181.317 55.8721 176.265C53.7247 171.214 53.1628 165.656 54.2576 160.294C55.3523 154.932 58.0544 150.006 62.0223 146.14C65.9901 142.274 71.0454 139.641 76.549 138.575C82.0525 137.508 87.7571 138.055 92.9413 140.148C98.1255 142.24 102.557 145.783 105.674 150.329C108.792 154.875 110.456 160.219 110.456 165.687C110.448 173.016 107.456 180.043 102.137 185.225C96.818 190.408 89.6062 193.322 82.084 193.33ZM82.084 152.476C79.4011 152.476 76.7785 153.251 74.5478 154.703C72.3171 156.156 70.5786 158.22 69.5521 160.635C68.5257 163.05 68.2573 165.708 68.7811 168.272C69.3049 170.835 70.5972 173.19 72.4946 175.038C74.3921 176.886 76.8094 178.145 79.4408 178.654C82.0723 179.163 84.7997 178.901 87.2781 177.9C89.7565 176.899 91.8745 175.204 93.3643 173.03C94.8541 170.856 95.6488 168.301 95.6478 165.687C95.6439 162.183 94.2135 158.825 91.6705 156.348C89.1274 153.871 85.6797 152.478 82.084 152.476Z" fill="white"/>
<path d="M154.355 193.33C148.744 193.33 143.259 191.709 138.593 188.671C133.927 185.634 130.291 181.317 128.144 176.265C125.996 171.214 125.434 165.656 126.529 160.294C127.624 154.932 130.326 150.006 134.294 146.14C138.262 142.274 143.317 139.641 148.82 138.575C154.324 137.508 160.029 138.055 165.213 140.148C170.397 142.24 174.828 145.783 177.946 150.329C181.063 154.875 182.727 160.219 182.727 165.687C182.719 173.016 179.728 180.043 174.409 185.225C169.09 190.408 161.878 193.322 154.355 193.33ZM154.355 152.476C151.673 152.476 149.05 153.251 146.819 154.703C144.589 156.156 142.85 158.22 141.824 160.635C140.797 163.05 140.529 165.708 141.053 168.272C141.576 170.835 142.869 173.19 144.766 175.038C146.664 176.886 149.081 178.145 151.712 178.654C154.344 179.163 157.071 178.901 159.55 177.9C162.028 176.899 164.146 175.204 165.636 173.03C167.126 170.856 167.92 168.301 167.919 165.687C167.915 162.183 166.485 158.825 163.942 156.348C161.399 153.871 157.951 152.478 154.355 152.476Z" fill="white"/>
<path d="M50.5338 56.5033C48.9796 56.5032 47.465 56.0266 46.2043 55.141C44.9437 54.2554 44.0011 53.0057 43.51 51.5691L30.8198 14.4276H7.40385C5.44023 14.4276 3.55703 13.6676 2.16854 12.3147C0.780047 10.9619 0 9.12703 0 7.21381C0 5.30059 0.780047 3.46573 2.16854 2.11287C3.55703 0.760024 5.44023 0 7.40385 0H36.1802C37.7343 0.000140104 39.249 0.476771 40.5096 1.36236C41.7702 2.24796 42.7128 3.4976 43.204 4.93424L57.5822 47.01C57.9529 48.0942 58.0538 49.2488 57.8768 50.3786C57.6997 51.5083 57.2497 52.5809 56.5638 53.508C55.8779 54.435 54.9757 55.19 53.9316 55.7108C52.8875 56.2316 51.7314 56.5032 50.5584 56.5033H50.5338Z" fill="white"/>
</svg>
