<svg width="138" height="138" viewBox="0 0 138 138" fill="none" xmlns="http://www.w3.org/2000/svg">
<g clip-path="url(#clip0_126_6)">
<path d="M82.287 54.857L82.317 27.399L54.858 27.429L65.143 37.715L27.456 75.402L34.314 82.26L72.001 44.572L82.287 54.857ZM109.715 0H27.429C12.28 0 0 12.28 0 27.428V109.715C0 124.864 12.28 137.144 27.429 137.144H109.715C124.863 137.144 137.144 124.864 137.144 109.715V27.428C137.144 12.28 124.864 0 109.715 0ZM123.43 102.858C123.43 114.219 114.22 123.429 102.859 123.429H34.286C22.924 123.429 13.714 114.218 13.714 102.858V34.286C13.714 22.925 22.924 13.714 34.286 13.714H102.858C114.219 13.714 123.429 22.924 123.429 34.286L123.43 102.858ZM65.144 92.572L54.859 82.286V109.714H82.288L72.002 99.429L109.69 61.742L102.832 54.883L65.144 92.572Z" fill="white"/>
</g>
<defs>
<clipPath id="clip0_126_6">
<rect width="137.144" height="137.144" fill="white"/>
</clipPath>
</defs>
</svg>
