<?xml version="1.0" ?><svg data-name="Layer 2" id="Layer_2" viewBox="0 0 272 272" xmlns="http://www.w3.org/2000/svg"><defs><style>.cls-1{fill:#564c4d;}</style></defs><title/><path class="cls-1" d="M72,64V240h32V64ZM96,232H80V72H96Z"/><path class="cls-1" d="M120,64V240h32V64Zm24,168H128V72h16Z"/><path class="cls-1" d="M168,64V240h32V64Zm24,168H176V72h16Z"/><path class="cls-1" d="M216,24H56A16,16,0,0,0,40,40V52a4,4,0,0,0,4,4H228a4,4,0,0,0,4-4V40A16,16,0,0,0,216,24Zm8,24H48V40a8,8,0,0,1,8-8H216a8,8,0,0,1,8,8Z"/><path class="cls-1" d="M216,56V235a21,21,0,0,1-21,21H77a21,21,0,0,1-21-21V56H48V235a29,29,0,0,0,29,29H195a29,29,0,0,0,29-29V56Z"/><polygon class="cls-1" points="118 24 118 16 154 16 154 24 162 24 162 8 110 8 110 24 118 24"/></svg>