<svg width="200" height="200" viewBox="0 0 200 200" fill="none" xmlns="http://www.w3.org/2000/svg">
<path d="M199.977 41.4727V25.9294V25.6654C199.463 20.2206 195.938 16.5985 190.896 16.0709H190.639H160.386V9.06691C160.386 4.14962 156.348 0 151.562 0H45.6997C40.9142 0 36.8759 4.14962 36.8759 9.06691V16.0709H9.40037H9.1435C4.10149 16.3345 0.576527 20.2206 0.0631099 25.6654V25.9294V41.4727C-0.193762 45.6224 -1.45427 85.776 40.4008 92.5161C46.9602 111.418 62.0869 126.457 81.2519 132.142V157.783L47.9642 174.094C47.9642 174.094 47.7073 174.094 47.7073 174.358C42.9218 177.213 40.4008 181.362 40.4008 186.015V191.197V191.461C40.9142 196.642 44.4392 200 49.7381 200H147.804C153.103 200 156.885 196.642 157.141 191.461V191.197V186.015C157.141 181.362 154.62 177.213 149.835 174.358L149.578 174.094L116.804 158.023V131.902C135.198 126.193 150.091 111.441 156.884 92.7797C171.007 90.9566 181.839 85.5359 189.402 76.469C201.004 62.197 199.977 44.0632 199.977 41.4727ZM37.8795 82.4176C6.87936 74.9098 9.14383 43.8234 9.40037 42.2642C9.40037 42.0003 9.40037 42.0003 9.40037 41.7367V26.1933C9.40037 25.9294 9.40037 25.6657 9.40037 25.6657H9.65724H36.8759V71.2643C36.8759 73.0874 36.8759 74.6224 37.1327 76.4455C37.1327 76.7095 37.1327 76.9731 37.1327 76.9731C37.3661 78.7955 37.6229 80.3308 37.8795 82.4176C37.8795 82.1536 37.8795 82.1536 37.8795 82.4176ZM147.804 185.776V190.189H49.4812V185.776C49.4812 184.48 50.9986 183.185 52.0022 182.657L86.294 166.083H110.991L145.283 182.657C146.287 183.185 147.804 184.48 147.804 185.776ZM107.21 134.732V156.488H90.5657V134.732H107.21ZM98.6428 125.162C74.9491 125.162 55.037 109.091 48.4776 87.0709C48.2207 85.7757 47.7305 84.4805 47.4739 83.1852C46.9605 80.8584 46.7269 78.268 46.4703 75.9414C46.4703 75.6775 46.4703 75.4139 46.4703 75.1738C46.4703 73.8786 46.2134 72.8469 46.2134 71.5517V21.0121V9.61832H150.839V22.5709V71.0238C150.839 72.319 150.839 73.3507 150.582 74.6459C150.582 74.9098 150.582 75.1734 150.582 75.4135C150.582 76.4448 150.325 77.7404 150.325 78.7717V79.0356C150.068 80.3308 149.812 81.3625 149.578 82.6577C149.578 82.9216 149.578 83.1852 149.321 83.4253C149.064 84.4566 148.808 85.4882 148.574 86.5437C142.248 108.827 122.08 125.162 98.6428 125.162ZM182.096 70.4963C176.797 76.9727 169.234 81.1224 159.406 82.9213V82.6573C159.663 80.8342 159.919 79.2992 160.153 77.4761C160.153 77.2122 160.153 76.9485 160.153 76.9485C160.41 75.1254 160.41 73.3265 160.41 71.5037V25.6896H190.406C190.663 25.6896 190.663 25.6896 190.663 25.6896C190.663 25.6896 190.663 25.9535 190.663 26.2171V41.7605C190.663 42.0245 190.663 42.0245 190.663 42.2881C190.663 42.5279 191.923 58.311 182.096 70.4963ZM89.0486 102.614C88.3016 104.437 86.5276 105.733 84.7534 105.733C84.24 105.733 83.7497 105.733 82.9791 105.469C67.5959 99.5201 64.3278 85.272 64.5844 78.7955V30.1028C64.5844 27.5124 66.5919 25.4495 69.113 25.4495C71.634 25.4495 73.6415 27.5124 73.6415 30.1028V79.0595C73.6415 79.8271 73.1281 91.7484 85.9904 96.6657C88.815 97.4331 90.0758 100.287 89.0486 102.614Z" fill="white"/>
</svg>
